time="2022-05-25T23:23:35+08:00" level=info msg="控制台输出:\nffmpeg version 2022-05-23-git-6076dbcb55-full_build-www.gyan.dev Copyright (c) 2000-2022 the FFmpeg developers\r\n  built with gcc 11.3.0 (Rev1, Built by MSYS2 project)\r\n  configuration: --enable-gpl --enable-version3 --enable-static --disable-w32threads --disable-autodetect --enable-fontconfig --enable-iconv --enable-gnutls --enable-libxml2 --enable-gmp --enable-bzlib --enable-lzma --enable-libsnappy --enable-zlib --enable-librist --enable-libsrt --enable-libssh --enable-libzmq --enable-avisynth --enable-libbluray --enable-libcaca --enable-sdl2 --enable-libdav1d --enable-libdavs2 --enable-libuavs3d --enable-libzvbi --enable-librav1e --enable-libsvtav1 --enable-libwebp --enable-libx264 --enable-libx265 --enable-libxavs2 --enable-libxvid --enable-libaom --enable-libjxl --enable-libopenjpeg --enable-libvpx --enable-mediafoundation --enable-libass --enable-frei0r --enable-libfreetype --enable-libfribidi --enable-liblensfun --enable-libvidstab --enable-libvmaf --enable-libzimg --enable-amf --enable-cuda-llvm --enable-cuvid --enable-ffnvcodec --enable-nvdec --enable-nvenc --enable-d3d11va --enable-dxva2 --enable-libmfx --enable-libshaderc --enable-vulkan --enable-libplacebo --enable-opencl --enable-libcdio --enable-libgme --enable-libmodplug --enable-libopenmpt --enable-libopencore-amrwb --enable-libmp3lame --enable-libshine --enable-libtheora --enable-libtwolame --enable-libvo-amrwbenc --enable-libilbc --enable-libgsm --enable-libopencore-amrnb --enable-libopus --enable-libspeex --enable-libvorbis --enable-ladspa --enable-libbs2b --enable-libflite --enable-libmysofa --enable-librubberband --enable-libsoxr --enable-chromaprint\r\n  libavutil      57. 25.100 / 57. 25.100\r\n  libavcodec     59. 28.100 / 59. 28.100\r\n  libavformat    59. 24.100 / 59. 24.100\r\n  libavdevice    59.  6.100 / 59.  6.100\r\n  libavfilter     8. 38.100 /  8. 38.100\r\n  libswscale      6.  6.100 /  6.  6.100\r\n  libswresample   4.  6.100 /  4.  6.100\r\n  libpostproc    56.  5.100 / 56.  5.100\r\n[mov,mp4,m4a,3gp,3g2,mj2 @ 0000023b4ff9f6c0] Auto-inserting h264_mp4toannexb bitstream filter\r\nInput #0, concat, from 'D:\\Java\\Git\\git_repository\\cameraJob\\h5s_camera_job\\app\\job/3402000000/3402000000.txt':\r\n  Duration: N/A, start: 0.000000, bitrate: 516 kb/s\r\n  Stream #0:0(und): Video: h264 (High) (avc1 / 0x31637661), yuvj420p(pc, bt709, progressive), 1920x1080, 516 kb/s, 24.86 fps, 25 tbr, 90k tbn\r\n    Metadata:\r\n      handler_name    : VideoHandler\r\n      vendor_id       : [0][0][0][0]\r\nOutput #0, mp4, to 'output//34020000001320010201-5af17f1e-324f-4305-971b-4469be639781.mp4':\r\n  Metadata:\r\n    encoder         : Lavf59.24.100\r\n  Stream #0:0(und): Video: h264 (High) (avc1 / 0x31637661), yuvj420p(pc, bt709, progressive), 1920x1080, q=2-31, 516 kb/s, 24.86 fps, 25 tbr, 90k tbn\r\n    Metadata:\r\n      handler_name    : VideoHandler\r\n      vendor_id       : [0][0][0][0]\r\nStream mapping:\r\n  Stream #0:0 -> #0:0 (copy)\r\nPress [q] to stop, [?] for help\r\nframe=    1 fps=0.0 q=-1.0 size=     256kB time=00:00:00.00 bitrate=190685090.9kbits/s speed=N/A    \rframe=13823 fps=0.0 q=-1.0 size=   33280kB time=00:09:15.84 bitrate= 490.5kbits/s speed=1.11e+03x    \rframe=16825 fps=16824 q=-1.0 size=   43008kB time=00:11:16.36 bitrate= 520.9kbits/s speed= 676x    \rframe=26263 fps=17184 q=-1.0 size=   66560kB time=00:17:36.31 bitrate= 516.2kbits/s speed= 691x    \r[mov,mp4,m4a,3gp,3g2,mj2 @ 0000023b50131bc0] Auto-inserting h264_mp4toannexb bitstream filter\r\nframe=29926 fps=7058 q=-1.0 size=   75776kB time=00:20:03.89 bitrate= 515.6kbits/s speed= 284x    \rframe=38503 fps=8074 q=-1.0 size=  100864kB time=00:25:48.28 bitrate= 533.7kbits/s speed= 325x    \rframe=47263 fps=8913 q=-1.0 size=  123136kB time=00:31:40.28 bitrate= 530.8kbits/s speed= 358x    \rframe=54865 fps=9433 q=-1.0 size=  142848kB time=00:36:45.75 bitrate= 530.5kbits/s speed= 379x    \r[mov,mp4,m4a,3gp,3g2,mj2 @ 0000023b4ffb3280] Auto-inserting h264_mp4toannexb bitstream filter\r\nframe=59849 fps=7107 q=-1.0 size=  156416kB time=00:40:05.73 bitrate= 532.6kbits/s speed= 286x    \rframe=66724 fps=7458 q=-1.0 size=  173824kB time=00:44:41.72 bitrate= 531.0kbits/s speed=300x    \rframe=71212 fps=7531 q=-1.0 size=  187392kB time=00:47:41.72 bitrate= 536.4kbits/s speed= 303x    \rframe=77489 fps=7751 q=-1.0 size=  204288kB time=00:51:53.71 bitrate= 537.5kbits/s speed= 311x    \rframe=82891 fps=7897 q=-1.0 size=  219648kB time=00:55:34.15 bitrate= 539.7kbits/s speed= 318x    \rframe=88319 fps=8031 q=-1.0 size=  230144kB time=00:59:25.51 bitrate= 528.8kbits/s speed= 324x    \r[mov,mp4,m4a,3gp,3g2,mj2 @ 0000023b4ffb2d00] Auto-inserting h264_mp4toannexb bitstream filter\r\nframe=89378 fps=6340 q=-1.0 size=  232448kB time=01:00:07.96 bitrate= 527.8kbits/s speed= 256x    \rframe=95162 fps=6452 q=-1.0 size=  248064kB time=01:03:59.96 bitrate= 529.2kbits/s speed= 260x    \rframe=100744 fps=6600 q=-1.0 size=  264960kB time=01:07:43.96 bitrate= 534.1kbits/s speed= 266x    \rframe=109016 fps=6914 q=-1.0 size=  287744kB time=01:13:15.95 bitrate= 536.2kbits/s speed= 279x    \rframe=114905 fps=7031 q=-1.0 size=  304896kB time=01:17:11.94 bitrate= 539.2kbits/s speed= 283x    \r[mov,mp4,m4a,3gp,3g2,mj2 @ 0000023b4ffb3540] Auto-inserting h264_mp4toannexb bitstream filter\r\nframe=119395 fps=6238 q=-1.0 size=  317952kB time=01:20:11.92 bitrate= 541.3kbits/s speed= 251x    \rframe=125670 fps=6386 q=-1.0 size=  332800kB time=01:24:23.92 bitrate= 538.4kbits/s speed= 257x    \rframe=129553 fps=6417 q=-1.0 size=  343808kB time=01:26:59.91 bitrate= 539.6kbits/s speed= 259x    \rframe=136152 fps=6577 q=-1.0 size=  360960kB time=01:31:25.27 bitrate= 539.1kbits/s speed= 265x    \rframe=143849 fps=6784 q=-1.0 size=  383488kB time=01:36:33.94 bitrate= 542.2kbits/s speed= 273x    \r[mov,mp4,m4a,3gp,3g2,mj2 @ 0000023b4ffb3280] Auto-inserting h264_mp4toannexb bitstream filter\r\nframe=148929 fps=5905 q=-1.0 size=  395008kB time=01:40:13.92 bitrate= 538.1kbits/s speed= 238x    \rframe=152908 fps=5926 q=-1.0 size=  405248kB time=01:42:53.91 bitrate= 537.7kbits/s speed= 239x    \rframe=165065 fps=6273 q=-1.0 size=  439296kB time=01:51:05.90 bitrate= 539.9kbits/s speed= 253x    \rframe=171731 fps=6402 q=-1.0 size=  456704kB time=01:55:33.90 bitrate= 539.6kbits/s speed= 258x    \rframe=174518 fps=6384 q=-1.0 size=  463872kB time=01:57:25.90 bitrate= 539.3kbits/s speed= 258x    \r[mov,mp4,m4a,3gp,3g2,mj2 @ 0000023b4ffb3800] Auto-inserting h264_mp4toannexb bitstream filter\r\nframe=178717 fps=5809 q=-1.0 size=  476160kB time=02:00:14.83 bitrate= 540.7kbits/s speed= 234x    \rframe=185590 fps=5934 q=-1.0 size=  493312kB time=02:04:50.83 bitrate= 539.5kbits/s speed= 240x    \rframe=193836 fps=6101 q=-1.0 size=  515072kB time=02:10:22.82 bitrate= 539.4kbits/s speed= 246x    \rframe=199429 fps=6155 q=-1.0 size=  530944kB time=02:14:14.82 bitrate= 540.0kbits/s speed= 249x    \rframe=203608 fps=6188 q=-1.0 size=  541952kB time=02:17:02.81 bitrate= 539.9kbits/s speed= 250x    \r[mov,mp4,m4a,3gp,3g2,mj2 @ 0000023b4ffb2d00] Auto-inserting h264_mp4toannexb bitstream filter\r\nframe=208495 fps=5518 q=-1.0 size=  555520kB time=02:20:18.79 bitrate= 540.6kbits/s speed= 223x    \rframe=219367 fps=5727 q=-1.0 size=  585984kB time=02:27:35.74 bitrate= 542.1kbits/s speed= 231x    \rframe=225249 fps=5803 q=-1.0 size=  601600kB time=02:31:31.74 bitrate= 542.1kbits/s speed= 234x    \rframe=229819 fps=5845 q=-1.0 size=  612352kB time=02:34:35.73 bitrate= 540.8kbits/s speed= 236x    \rframe=233405 fps=5860 q=-1.0 size=  622592kB time=02:36:59.73 bitrate= 541.4kbits/s speed= 237x    \rframe=237678 fps=5890 q=-1.0 size=  632832kB time=02:39:51.73 bitrate= 540.5kbits/s speed= 238x    \r[mov,mp4,m4a,3gp,3g2,mj2 @ 0000023b4ffb3d80] Auto-inserting h264_mp4toannexb bitstream filter\r\nframe=238377 fps=5467 q=-1.0 size=  634880kB time=02:40:19.71 bitrate= 540.7kbits/s speed= 221x    \rframe=249650 fps=5660 q=-1.0 size=  665344kB time=02:47:53.22 bitrate= 541.1kbits/s speed= 228x    \rframe=253237 fps=5674 q=-1.0 size=  672256kB time=02:50:17.21 bitrate= 539.0kbits/s speed= 229x    \rframe=257624 fps=5707 q=-1.0 size=  683008kB time=02:53:13.21 bitrate= 538.4kbits/s speed= 230x    \rframe=263509 fps=5697 q=-1.0 size=  695552kB time=02:57:09.37 bitrate= 536.1kbits/s speed= 230x    \rframe=266817 fps=5701 q=-1.0 size=  702464kB time=02:59:22.32 bitrate= 534.7kbits/s speed= 230x    \r[mov,mp4,m4a,3gp,3g2,mj2 @ 0000023b4ffb3d80] Auto-inserting h264_mp4toannexb bitstream filter\r\nframe=268312 fps=5409 q=-1.0 size=  705280kB time=03:00:22.42 bitrate= 533.9kbits/s speed= 218x    \rframe=273981 fps=5468 q=-1.0 size=  717568kB time=03:04:09.78 bitrate= 532.0kbits/s speed= 221x    \rframe=285698 fps=5645 q=-1.0 size=  743936kB time=03:11:59.33 bitrate= 529.1kbits/s speed= 228x    \rframe=293839 fps=5749 q=-1.0 size=  759040kB time=03:17:25.64 bitrate= 524.9kbits/s speed= 232x    \rframe=296649 fps=5744 q=-1.0 size=  764672kB time=03:19:18.28 bitrate= 523.8kbits/s speed= 232x    \r[mov,mp4,m4a,3gp,3g2,mj2 @ 0000023b4ffb3800] Auto-inserting h264_mp4toannexb bitstream filter\r\nframe=298345 fps=5057 q=-1.0 size=  769280kB time=03:20:26.34 bitrate= 524.0kbits/s speed= 204x    \rframe=304130 fps=5112 q=-1.0 size=  779776kB time=03:24:18.69 bitrate= 521.1kbits/s speed= 206x    \rframe=308904 fps=5148 q=-1.0 size=  789248kB time=03:27:30.77 bitrate= 519.3kbits/s speed= 207x    \rframe=316369 fps=5229 q=-1.0 size=  804352kB time=03:32:30.92 bitrate= 516.8kbits/s speed= 211x    \rframe=322767 fps=5290 q=-1.0 size=  817920kB time=03:36:48.12 bitrate= 515.1kbits/s speed= 213x    \r[mov,mp4,m4a,3gp,3g2,mj2 @ 0000023b4ffb45c0] Auto-inserting h264_mp4toannexb bitstream filter\r\nframe=328406 fps=4801 q=-1.0 size=  828928kB time=03:40:34.57 bitrate= 513.1kbits/s speed= 193x    \rframe=335029 fps=4862 q=-1.0 size=  841472kB time=03:45:00.45 bitrate= 510.6kbits/s speed= 196x    \rframe=338110 fps=4870 q=-1.0 size=  847104kB time=03:47:04.45 bitrate= 509.3kbits/s speed= 196x    \rframe=343042 fps=4905 q=-1.0 size=  855552kB time=03:50:22.20 bitrate= 507.1kbits/s speed= 198x    \rframe=348286 fps=4928 q=-1.0 size=  866304kB time=03:53:52.44 bitrate= 505.7kbits/s speed= 199x    \rframe=352258 fps=4949 q=-1.0 size=  873728kB time=03:56:32.24 bitrate= 504.3kbits/s speed= 199x    \rframe=356876 fps=4979 q=-1.0 size=  881664kB time=03:59:37.35 bitrate= 502.4kbits/s speed= 201x    \r[mov,mp4,m4a,3gp,3g2,mj2 @ 0000023b4ffb4880] Auto-inserting h264_mp4toannexb bitstream filter\r\nframe=358341 fps=4465 q=-1.0 size=  884736kB time=04:00:36.41 bitrate= 502.0kbits/s speed= 180x    \rframe=363350 fps=4499 q=-1.0 size=  894976kB time=04:03:57.57 bitrate= 500.9kbits/s speed= 181x    \rframe=368910 fps=4539 q=-1.0 size=  907264kB time=04:07:40.88 bitrate= 500.1kbits/s speed= 183x    \rframe=376617 fps=4606 q=-1.0 size=  927488kB time=04:12:50.56 bitrate= 500.8kbits/s speed= 186x    \rframe=378658 fps=4600 q=-1.0 size=  931584kB time=04:14:12.35 bitrate= 500.4kbits/s speed= 185x    \rframe=380213 fps=4589 q=-1.0 size=  935168kB time=04:15:14.55 bitrate= 500.2kbits/s speed= 185x    \rframe=383297 fps=4597 q=-1.0 size=  940544kB time=04:17:18.55 bitrate= 499.1kbits/s speed= 185x    \rframe=388043 fps=4626 q=-1.0 size=  949504kB time=04:20:28.95 bitrate= 497.7kbits/s speed= 186x    \r[mov,mp4,m4a,3gp,3g2,mj2 @ 0000023b501ecac0] Auto-inserting h264_mp4toannexb bitstream filter\r\nframe=388341 fps=4256 q=-1.0 size=  950016kB time=04:20:40.93 bitrate= 497.6kbits/s speed= 171x    \rframe=393218 fps=4286 q=-1.0 size=  958976kB time=04:23:56.68 bitrate= 496.1kbits/s speed= 173x    \rframe=396814 fps=4301 q=-1.0 size=  965888kB time=04:26:20.92 bitrate= 495.1kbits/s speed= 173x    \rframe=401295 fps=4326 q=-1.0 size=  974336kB time=04:29:20.92 bitrate= 493.9kbits/s speed= 174x    \rframe=408461 fps=4378 q=-1.0 size=  988928kB time=04:34:08.91 bitrate= 492.5kbits/s speed= 176x    \rframe=411403 fps=4382 q=-1.0 size=  995328kB time=04:36:07.15 bitrate= 492.2kbits/s speed= 176x    \rframe=415575 fps=4403 q=-1.0 size= 1003264kB time=04:38:55.15 bitrate= 491.1kbits/s speed= 177x    \r[mov,mp4,m4a,3gp,3g2,mj2 @ 0000023b501ed880] Auto-inserting h264_mp4toannexb bitstream filter\r\nframe=418268 fps=4150 q=-1.0 size= 1009408kB time=04:40:43.12 bitrate= 490.9kbits/s speed= 167x    \rframe=423645 fps=4182 q=-1.0 size= 1020160kB time=04:44:19.28 bitrate= 489.9kbits/s speed= 168x    \rframe=428214 fps=4206 q=-1.0 size= 1028608kB time=04:47:23.28 bitrate= 488.7kbits/s speed= 169x    \rframe=432397 fps=4226 q=-1.0 size= 1036544kB time=04:50:11.27 bitrate= 487.7kbits/s speed= 170x    \rframe=436627 fps=4247 q=-1.0 size= 1043712kB time=04:53:00.99 bitrate= 486.3kbits/s speed= 171x    \rframe=440119 fps=4259 q=-1.0 size= 1049600kB time=04:55:20.99 bitrate= 485.2kbits/s speed= 171x    \rframe=445984 fps=4295 q=-1.0 size= 1059072kB time=04:59:16.98 bitrate= 483.2kbits/s speed= 173x    \r[mov,mp4,m4a,3gp,3g2,mj2 @ 0000023b501ecd80] Auto-inserting h264_mp4toannexb bitstream filter\r\nframe=448178 fps=4208 q=-1.0 size= 1062656kB time=05:00:44.96 bitrate= 482.4kbits/s speed= 169x    \rframe=456070 fps=4273 q=-1.0 Lsize= 1083716kB time=05:06:01.99 bitrate= 483.5kbits/s speed= 172x    \r\nvideo:1081644kB audio:0kB subtitle:0kB other streams:0kB global headers:0kB muxing overhead: 0.191524%\r\n\n" func=h5s_camera_job/app/job.mergeVideo file="D:/Java/Git/git_repository/cameraJob/h5s_camera_job/app/job/delay_job.go:269"
time="2022-05-25T23:24:10+08:00" level=info msg="控制台输出:\nffmpeg version 2022-05-23-git-6076dbcb55-full_build-www.gyan.dev Copyright (c) 2000-2022 the FFmpeg developers\r\n  built with gcc 11.3.0 (Rev1, Built by MSYS2 project)\r\n  configuration: --enable-gpl --enable-version3 --enable-static --disable-w32threads --disable-autodetect --enable-fontconfig --enable-iconv --enable-gnutls --enable-libxml2 --enable-gmp --enable-bzlib --enable-lzma --enable-libsnappy --enable-zlib --enable-librist --enable-libsrt --enable-libssh --enable-libzmq --enable-avisynth --enable-libbluray --enable-libcaca --enable-sdl2 --enable-libdav1d --enable-libdavs2 --enable-libuavs3d --enable-libzvbi --enable-librav1e --enable-libsvtav1 --enable-libwebp --enable-libx264 --enable-libx265 --enable-libxavs2 --enable-libxvid --enable-libaom --enable-libjxl --enable-libopenjpeg --enable-libvpx --enable-mediafoundation --enable-libass --enable-frei0r --enable-libfreetype --enable-libfribidi --enable-liblensfun --enable-libvidstab --enable-libvmaf --enable-libzimg --enable-amf --enable-cuda-llvm --enable-cuvid --enable-ffnvcodec --enable-nvdec --enable-nvenc --enable-d3d11va --enable-dxva2 --enable-libmfx --enable-libshaderc --enable-vulkan --enable-libplacebo --enable-opencl --enable-libcdio --enable-libgme --enable-libmodplug --enable-libopenmpt --enable-libopencore-amrwb --enable-libmp3lame --enable-libshine --enable-libtheora --enable-libtwolame --enable-libvo-amrwbenc --enable-libilbc --enable-libgsm --enable-libopencore-amrnb --enable-libopus --enable-libspeex --enable-libvorbis --enable-ladspa --enable-libbs2b --enable-libflite --enable-libmysofa --enable-librubberband --enable-libsoxr --enable-chromaprint\r\n  libavutil      57. 25.100 / 57. 25.100\r\n  libavcodec     59. 28.100 / 59. 28.100\r\n  libavformat    59. 24.100 / 59. 24.100\r\n  libavdevice    59.  6.100 / 59.  6.100\r\n  libavfilter     8. 38.100 /  8. 38.100\r\n  libswscale      6.  6.100 /  6.  6.100\r\n  libswresample   4.  6.100 /  4.  6.100\r\n  libpostproc    56.  5.100 / 56.  5.100\r\n[mov,mp4,m4a,3gp,3g2,mj2 @ 00000144e580f640] Auto-inserting h264_mp4toannexb bitstream filter\r\nInput #0, concat, from 'D:\\Java\\Git\\git_repository\\cameraJob\\h5s_camera_job\\app\\job/3402000000/3402000000.txt':\r\n  Duration: N/A, start: 0.000000, bitrate: 516 kb/s\r\n  Stream #0:0(und): Video: h264 (High) (avc1 / 0x31637661), yuvj420p(pc, bt709, progressive), 1920x1080, 516 kb/s, 24.86 fps, 25 tbr, 90k tbn\r\n    Metadata:\r\n      handler_name    : VideoHandler\r\n      vendor_id       : [0][0][0][0]\r\nOutput #0, mp4, to 'output//34020000001320010201-5af17f1e-324f-4305-971b-4469be639781.mp4':\r\n  Metadata:\r\n    encoder         : Lavf59.24.100\r\n  Stream #0:0(und): Video: h264 (High) (avc1 / 0x31637661), yuvj420p(pc, bt709, progressive), 1920x1080, q=2-31, 516 kb/s, 24.86 fps, 25 tbr, 90k tbn\r\n    Metadata:\r\n      handler_name    : VideoHandler\r\n      vendor_id       : [0][0][0][0]\r\nStream mapping:\r\n  Stream #0:0 -> #0:0 (copy)\r\nPress [q] to stop, [?] for help\r\nframe=    1 fps=0.0 q=-1.0 size=     256kB time=00:00:00.00 bitrate=190685090.9kbits/s speed=N/A    \r[mov,mp4,m4a,3gp,3g2,mj2 @ 00000144e5aac700] Auto-inserting h264_mp4toannexb bitstream filter\r\nframe=29926 fps=0.0 q=-1.0 size=   75776kB time=00:20:03.89 bitrate= 515.6kbits/s speed=2.25e+03x    \r[mov,mp4,m4a,3gp,3g2,mj2 @ 00000144e5aacc80] Auto-inserting h264_mp4toannexb bitstream filter\r\nframe=59849 fps=55221 q=-1.0 size=  156416kB time=00:40:05.73 bitrate= 532.6kbits/s speed=2.22e+03x    \r[mov,mp4,m4a,3gp,3g2,mj2 @ 00000144e58f9880] Auto-inserting h264_mp4toannexb bitstream filter\r\nframe=89378 fps=54978 q=-1.0 size=  232448kB time=01:00:07.96 bitrate= 527.8kbits/s speed=2.22e+03x    \r[mov,mp4,m4a,3gp,3g2,mj2 @ 00000144e583e600] Auto-inserting h264_mp4toannexb bitstream filter\r\nframe=119395 fps=51778 q=-1.0 size=  317952kB time=01:20:11.92 bitrate= 541.3kbits/s speed=2.09e+03x    \r[mov,mp4,m4a,3gp,3g2,mj2 @ 00000144e61866c0] Auto-inserting h264_mp4toannexb bitstream filter\r\nframe=148929 fps=51434 q=-1.0 size=  395008kB time=01:40:13.92 bitrate= 538.1kbits/s speed=2.08e+03x    \r[mov,mp4,m4a,3gp,3g2,mj2 @ 00000144e5e9f840] Auto-inserting h264_mp4toannexb bitstream filter\r\nframe=178717 fps=50844 q=-1.0 size=  476160kB time=02:00:14.83 bitrate= 540.7kbits/s speed=2.05e+03x    \r[mov,mp4,m4a,3gp,3g2,mj2 @ 00000144e58bdac0] Auto-inserting h264_mp4toannexb bitstream filter\r\nframe=208495 fps=50418 q=-1.0 size=  555520kB time=02:20:18.79 bitrate= 540.6kbits/s speed=2.04e+03x    \r[mov,mp4,m4a,3gp,3g2,mj2 @ 00000144e582d340] Auto-inserting h264_mp4toannexb bitstream filter\r\nframe=238377 fps=50077 q=-1.0 size=  634880kB time=02:40:19.71 bitrate= 540.7kbits/s speed=2.02e+03x    \r[mov,mp4,m4a,3gp,3g2,mj2 @ 00000144e582d340] Auto-inserting h264_mp4toannexb bitstream filter\r\nframe=268312 fps=49839 q=-1.0 size=  705280kB time=03:00:22.42 bitrate= 533.9kbits/s speed=2.01e+03x    \r[mov,mp4,m4a,3gp,3g2,mj2 @ 00000144e5e8fe40] Auto-inserting h264_mp4toannexb bitstream filter\r\nframe=298345 fps=49666 q=-1.0 size=  769280kB time=03:20:26.34 bitrate= 524.0kbits/s speed=2e+03x    \r[mov,mp4,m4a,3gp,3g2,mj2 @ 00000144e5e90c00] Auto-inserting h264_mp4toannexb bitstream filter\r\nframe=328406 fps=49301 q=-1.0 size=  828928kB time=03:40:34.57 bitrate= 513.1kbits/s speed=1.99e+03x    \r[mov,mp4,m4a,3gp,3g2,mj2 @ 00000144e5e90100] Auto-inserting h264_mp4toannexb bitstream filter\r\nframe=358341 fps=48753 q=-1.0 size=  884736kB time=04:00:36.41 bitrate= 502.0kbits/s speed=1.96e+03x    \r[mov,mp4,m4a,3gp,3g2,mj2 @ 00000144e5e8f080] Auto-inserting h264_mp4toannexb bitstream filter\r\nframe=388341 fps=48149 q=-1.0 size=  950016kB time=04:20:40.93 bitrate= 497.6kbits/s speed=1.94e+03x    \r[mov,mp4,m4a,3gp,3g2,mj2 @ 00000144e5e8f8c0] Auto-inserting h264_mp4toannexb bitstream filter\r\nframe=418268 fps=47573 q=-1.0 size= 1009408kB time=04:40:43.12 bitrate= 490.9kbits/s speed=1.92e+03x    \rframe=445970 fps=47994 q=-1.0 size= 1059072kB time=04:59:16.42 bitrate= 483.2kbits/s speed=1.93e+03x    \r[mov,mp4,m4a,3gp,3g2,mj2 @ 00000144e5e90100] Auto-inserting h264_mp4toannexb bitstream filter\r\nframe=456070 fps=47706 q=-1.0 Lsize= 1083716kB time=05:06:01.99 bitrate= 483.5kbits/s speed=1.92e+03x    \r\nvideo:1081644kB audio:0kB subtitle:0kB other streams:0kB global headers:0kB muxing overhead: 0.191524%\r\n\n" func=h5s_camera_job/app/job.mergeVideo file="D:/Java/Git/git_repository/cameraJob/h5s_camera_job/app/job/delay_job.go:269"
time="2022-05-25T23:25:08+08:00" level=info msg="控制台输出:\nffmpeg version 2022-05-23-git-6076dbcb55-full_build-www.gyan.dev Copyright (c) 2000-2022 the FFmpeg developers\r\n  built with gcc 11.3.0 (Rev1, Built by MSYS2 project)\r\n  configuration: --enable-gpl --enable-version3 --enable-static --disable-w32threads --disable-autodetect --enable-fontconfig --enable-iconv --enable-gnutls --enable-libxml2 --enable-gmp --enable-bzlib --enable-lzma --enable-libsnappy --enable-zlib --enable-librist --enable-libsrt --enable-libssh --enable-libzmq --enable-avisynth --enable-libbluray --enable-libcaca --enable-sdl2 --enable-libdav1d --enable-libdavs2 --enable-libuavs3d --enable-libzvbi --enable-librav1e --enable-libsvtav1 --enable-libwebp --enable-libx264 --enable-libx265 --enable-libxavs2 --enable-libxvid --enable-libaom --enable-libjxl --enable-libopenjpeg --enable-libvpx --enable-mediafoundation --enable-libass --enable-frei0r --enable-libfreetype --enable-libfribidi --enable-liblensfun --enable-libvidstab --enable-libvmaf --enable-libzimg --enable-amf --enable-cuda-llvm --enable-cuvid --enable-ffnvcodec --enable-nvdec --enable-nvenc --enable-d3d11va --enable-dxva2 --enable-libmfx --enable-libshaderc --enable-vulkan --enable-libplacebo --enable-opencl --enable-libcdio --enable-libgme --enable-libmodplug --enable-libopenmpt --enable-libopencore-amrwb --enable-libmp3lame --enable-libshine --enable-libtheora --enable-libtwolame --enable-libvo-amrwbenc --enable-libilbc --enable-libgsm --enable-libopencore-amrnb --enable-libopus --enable-libspeex --enable-libvorbis --enable-ladspa --enable-libbs2b --enable-libflite --enable-libmysofa --enable-librubberband --enable-libsoxr --enable-chromaprint\r\n  libavutil      57. 25.100 / 57. 25.100\r\n  libavcodec     59. 28.100 / 59. 28.100\r\n  libavformat    59. 24.100 / 59. 24.100\r\n  libavdevice    59.  6.100 / 59.  6.100\r\n  libavfilter     8. 38.100 /  8. 38.100\r\n  libswscale      6.  6.100 /  6.  6.100\r\n  libswresample   4.  6.100 /  4.  6.100\r\n  libpostproc    56.  5.100 / 56.  5.100\r\n[mov,mp4,m4a,3gp,3g2,mj2 @ 000002a6c818f640] Auto-inserting h264_mp4toannexb bitstream filter\r\nInput #0, concat, from 'D:\\Java\\Git\\git_repository\\cameraJob\\h5s_camera_job\\app\\job/3402000000/3402000000.txt':\r\n  Duration: N/A, start: 0.000000, bitrate: 516 kb/s\r\n  Stream #0:0(und): Video: h264 (High) (avc1 / 0x31637661), yuvj420p(pc, bt709, progressive), 1920x1080, 516 kb/s, 24.86 fps, 25 tbr, 90k tbn\r\n    Metadata:\r\n      handler_name    : VideoHandler\r\n      vendor_id       : [0][0][0][0]\r\nFile 'output//34020000001320010201-5af17f1e-324f-4305-971b-4469be639781.mp4' already exists. Overwrite? [y/N] Not overwriting - exiting\r\n\n" func=h5s_camera_job/app/job.mergeVideo file="D:/Java/Git/git_repository/cameraJob/h5s_camera_job/app/job/delay_job.go:265"
time="2022-05-25T23:25:26+08:00" level=info msg="控制台输出:\nffmpeg version 2022-05-23-git-6076dbcb55-full_build-www.gyan.dev Copyright (c) 2000-2022 the FFmpeg developers\r\n  built with gcc 11.3.0 (Rev1, Built by MSYS2 project)\r\n  configuration: --enable-gpl --enable-version3 --enable-static --disable-w32threads --disable-autodetect --enable-fontconfig --enable-iconv --enable-gnutls --enable-libxml2 --enable-gmp --enable-bzlib --enable-lzma --enable-libsnappy --enable-zlib --enable-librist --enable-libsrt --enable-libssh --enable-libzmq --enable-avisynth --enable-libbluray --enable-libcaca --enable-sdl2 --enable-libdav1d --enable-libdavs2 --enable-libuavs3d --enable-libzvbi --enable-librav1e --enable-libsvtav1 --enable-libwebp --enable-libx264 --enable-libx265 --enable-libxavs2 --enable-libxvid --enable-libaom --enable-libjxl --enable-libopenjpeg --enable-libvpx --enable-mediafoundation --enable-libass --enable-frei0r --enable-libfreetype --enable-libfribidi --enable-liblensfun --enable-libvidstab --enable-libvmaf --enable-libzimg --enable-amf --enable-cuda-llvm --enable-cuvid --enable-ffnvcodec --enable-nvdec --enable-nvenc --enable-d3d11va --enable-dxva2 --enable-libmfx --enable-libshaderc --enable-vulkan --enable-libplacebo --enable-opencl --enable-libcdio --enable-libgme --enable-libmodplug --enable-libopenmpt --enable-libopencore-amrwb --enable-libmp3lame --enable-libshine --enable-libtheora --enable-libtwolame --enable-libvo-amrwbenc --enable-libilbc --enable-libgsm --enable-libopencore-amrnb --enable-libopus --enable-libspeex --enable-libvorbis --enable-ladspa --enable-libbs2b --enable-libflite --enable-libmysofa --enable-librubberband --enable-libsoxr --enable-chromaprint\r\n  libavutil      57. 25.100 / 57. 25.100\r\n  libavcodec     59. 28.100 / 59. 28.100\r\n  libavformat    59. 24.100 / 59. 24.100\r\n  libavdevice    59.  6.100 / 59.  6.100\r\n  libavfilter     8. 38.100 /  8. 38.100\r\n  libswscale      6.  6.100 /  6.  6.100\r\n  libswresample   4.  6.100 /  4.  6.100\r\n  libpostproc    56.  5.100 / 56.  5.100\r\n[mov,mp4,m4a,3gp,3g2,mj2 @ 000001c641f8f640] Auto-inserting h264_mp4toannexb bitstream filter\r\nInput #0, concat, from 'D:\\Java\\Git\\git_repository\\cameraJob\\h5s_camera_job\\app\\job/3402000000/3402000000.txt':\r\n  Duration: N/A, start: 0.000000, bitrate: 516 kb/s\r\n  Stream #0:0(und): Video: h264 (High) (avc1 / 0x31637661), yuvj420p(pc, bt709, progressive), 1920x1080, 516 kb/s, 24.86 fps, 25 tbr, 90k tbn\r\n    Metadata:\r\n      handler_name    : VideoHandler\r\n      vendor_id       : [0][0][0][0]\r\nOutput #0, mp4, to 'output//34020000001320010201-5af17f1e-324f-4305-971b-4469be639781.mp4':\r\n  Metadata:\r\n    encoder         : Lavf59.24.100\r\n  Stream #0:0(und): Video: h264 (High) (avc1 / 0x31637661), yuvj420p(pc, bt709, progressive), 1920x1080, q=2-31, 516 kb/s, 24.86 fps, 25 tbr, 90k tbn\r\n    Metadata:\r\n      handler_name    : VideoHandler\r\n      vendor_id       : [0][0][0][0]\r\nStream mapping:\r\n  Stream #0:0 -> #0:0 (copy)\r\nPress [q] to stop, [?] for help\r\nframe=    1 fps=0.0 q=-1.0 size=     256kB time=00:00:00.00 bitrate=190685090.9kbits/s speed=N/A    \r[mov,mp4,m4a,3gp,3g2,mj2 @ 000001c6425dcc80] Auto-inserting h264_mp4toannexb bitstream filter\r\nframe=29926 fps=0.0 q=-1.0 size=   75776kB time=00:20:03.89 bitrate= 515.6kbits/s speed=2.32e+03x    \r[mov,mp4,m4a,3gp,3g2,mj2 @ 000001c6425dbec0] Auto-inserting h264_mp4toannexb bitstream filter\r\nframe=59849 fps=54766 q=-1.0 size=  156416kB time=00:40:05.73 bitrate= 532.6kbits/s speed=2.2e+03x    \r[mov,mp4,m4a,3gp,3g2,mj2 @ 000001c642428d80] Auto-inserting h264_mp4toannexb bitstream filter\r\nframe=89378 fps=54297 q=-1.0 size=  232448kB time=01:00:07.96 bitrate= 527.8kbits/s speed=2.19e+03x    \r[mov,mp4,m4a,3gp,3g2,mj2 @ 000001c641fbe600] Auto-inserting h264_mp4toannexb bitstream filter\r\nframe=119395 fps=53154 q=-1.0 size=  317952kB time=01:20:11.92 bitrate= 541.3kbits/s speed=2.14e+03x    \r[mov,mp4,m4a,3gp,3g2,mj2 @ 000001c642cb5900] Auto-inserting h264_mp4toannexb bitstream filter\r\nframe=148929 fps=52520 q=-1.0 size=  395008kB time=01:40:13.92 bitrate= 538.1kbits/s speed=2.12e+03x    \r[mov,mp4,m4a,3gp,3g2,mj2 @ 000001c6429d0b80] Auto-inserting h264_mp4toannexb bitstream filter\r\nframe=178717 fps=51794 q=-1.0 size=  476160kB time=02:00:14.83 bitrate= 540.7kbits/s speed=2.09e+03x    \r[mov,mp4,m4a,3gp,3g2,mj2 @ 000001c64203d800] Auto-inserting h264_mp4toannexb bitstream filter\r\nframe=208495 fps=51245 q=-1.0 size=  555520kB time=02:20:18.79 bitrate= 540.6kbits/s speed=2.07e+03x    \r[mov,mp4,m4a,3gp,3g2,mj2 @ 000001c641fadb80] Auto-inserting h264_mp4toannexb bitstream filter\r\nframe=238377 fps=50833 q=-1.0 size=  634880kB time=02:40:19.71 bitrate= 540.7kbits/s speed=2.05e+03x    \r[mov,mp4,m4a,3gp,3g2,mj2 @ 000001c641fad080] Auto-inserting h264_mp4toannexb bitstream filter\r\nframe=268312 fps=50568 q=-1.0 size=  705280kB time=03:00:22.42 bitrate= 533.9kbits/s speed=2.04e+03x    \r[mov,mp4,m4a,3gp,3g2,mj2 @ 000001c6429bf080] Auto-inserting h264_mp4toannexb bitstream filter\r\nframe=298345 fps=50398 q=-1.0 size=  769280kB time=03:20:26.34 bitrate= 524.0kbits/s speed=2.03e+03x    \r[mov,mp4,m4a,3gp,3g2,mj2 @ 000001c6429bfb80] Auto-inserting h264_mp4toannexb bitstream filter\r\nframe=328406 fps=50177 q=-1.0 size=  828928kB time=03:40:34.57 bitrate= 513.1kbits/s speed=2.02e+03x    \r[mov,mp4,m4a,3gp,3g2,mj2 @ 000001c6429c0c00] Auto-inserting h264_mp4toannexb bitstream filter\r\nframe=358341 fps=49812 q=-1.0 size=  884736kB time=04:00:36.41 bitrate= 502.0kbits/s speed=2.01e+03x    \r[mov,mp4,m4a,3gp,3g2,mj2 @ 000001c6429bf600] Auto-inserting h264_mp4toannexb bitstream filter\r\nframe=388341 fps=49308 q=-1.0 size=  950016kB time=04:20:40.93 bitrate= 497.6kbits/s speed=1.99e+03x    \r[mov,mp4,m4a,3gp,3g2,mj2 @ 000001c6429bf080] Auto-inserting h264_mp4toannexb bitstream filter\r\nframe=418268 fps=48915 q=-1.0 size= 1009408kB time=04:40:43.12 bitrate= 490.9kbits/s speed=1.97e+03x    \r[mov,mp4,m4a,3gp,3g2,mj2 @ 000001c6429bf8c0] Auto-inserting h264_mp4toannexb bitstream filter\r\nframe=448178 fps=49408 q=-1.0 size= 1062656kB time=05:00:44.96 bitrate= 482.4kbits/s speed=1.99e+03x    \rframe=456070 fps=49427 q=-1.0 Lsize= 1083716kB time=05:06:01.99 bitrate= 483.5kbits/s speed=1.99e+03x    \r\nvideo:1081644kB audio:0kB subtitle:0kB other streams:0kB global headers:0kB muxing overhead: 0.191524%\r\n\n" func=h5s_camera_job/app/job.mergeVideo file="D:/Java/Git/git_repository/cameraJob/h5s_camera_job/app/job/delay_job.go:269"
